# xmcd CD database file
#
# Track frame offsets:
#	150
#	13775
#	24237
#	32275
#	35712
#	47125
#	75350
#	86500
#	93937
#	117337
#	132475
#	150637
#	171187
#	185525
#	203237
#	214000
#	220987
#	236737
#	255762
#	279075
#
# Disc length: 4451 seconds
#
# Revision: 0
# Processed by: cddbd v1.5PL3 Copyright (c) Steve Scherf et al.
# Submitted via: freeDB plugin v1.0
#
DISCID=01116114
DTITLE=Various Artist - １４　エリーゼのために　珠玉のピアノ名曲集?
DYEAR=1900
DGENRE=Classical
TTITLE0=エリーゼﾞのために
TTITLE1=ト調のメヌエット
TTITLE2=楽興の時第３番ヘ短調
TTITLE3=楽しき農夫〜子供のためのアルバム
TTITLE4=トロイメライ〜子供の情景
TTITLE5=アラベスク　ハ長調作品１８
TTITLE6=春の歌 イ長調作品６２−６〜無言歌集
TTITLE7=ワルツ第１５番変イ長調
TTITLE8=演奏会用練習曲第３番変ニ長調｢ため息｣
TTITLE9=ユーモレスク　 変ト長調
TTITLE10=ヘ調のメロディー
TTITLE11=舟歌
TTITLE12=メヌエット  ト長調作品１４−１
TTITLE13=プレリュードﾞ第６番ト短調作品２３−５
TTITLE14=エチュード第１２番嬰ニ短調作品８−１２
TTITLE15=メヌエット〜アンナ・マグダレーナの音楽手帳
TTITLE16=シチリアーノ
TTITLE17=調子の良い鍛冶屋
TTITLE18=ロンド　 ニ長調Ｋ４８５
TTITLE19=きらきら星変奏曲Ｋ２６５
EXTD=
EXTT0=
EXTT1=
EXTT2=
EXTT3=
EXTT4=
EXTT5=
EXTT6=
EXTT7=
EXTT8=
EXTT9=
EXTT10=
EXTT11=
EXTT12=
EXTT13=
EXTT14=
EXTT15=
EXTT16=
EXTT17=
EXTT18=
EXTT19=
PLAYORDER=
